<svg width="90" height="96" viewBox="0 0 90 96" fill="none" xmlns="http://www.w3.org/2000/svg">
<rect width="79" height="72" rx="19" fill="#0F672C"/>
<rect x="32" y="43" width="58" height="53" rx="14" fill="#0F672C"/>
<rect x="10" y="48" width="30" height="28" rx="8" fill="#0F672C"/>
<rect x="10" y="10" width="59" height="52" rx="12" fill="#00E24B"/>
<rect x="16" y="66" width="17" height="4" rx="2" fill="#00E24B"/>
<rect x="30" y="20" width="19" height="19" rx="6" fill="#05C444"/>
<rect x="40" y="52" width="40" height="34" rx="6" fill="#1EF866"/>
<rect x="21" y="42" width="37" height="5" rx="2.5" fill="#05C444"/>
<path d="M59.978 76H62.834L56.198 61.3H53.51L46.895 76H49.709L51.158 72.598H58.508L59.978 76ZM52.082 70.456L54.833 64.03L57.605 70.456H52.082ZM68.7355 64.66C66.9295 64.66 65.1865 65.122 63.9895 66.046L65.0185 67.957C65.8585 67.264 67.1605 66.844 68.4205 66.844C70.2895 66.844 71.2135 67.747 71.2135 69.28V69.448H68.3155C64.9135 69.448 63.6535 70.918 63.6535 72.787C63.6535 74.74 65.2705 76.147 67.8325 76.147C69.5125 76.147 70.7305 75.601 71.3605 74.635V76H73.8385V69.427C73.8385 66.193 71.9695 64.66 68.7355 64.66ZM68.3785 74.236C67.0345 74.236 66.2365 73.627 66.2365 72.682C66.2365 71.863 66.7195 71.191 68.5045 71.191H71.2135V72.493C70.7725 73.648 69.6595 74.236 68.3785 74.236Z" fill="#05C344"/>
</svg>
