<svg width="134" height="83" viewBox="0 0 134 83" fill="none" xmlns="http://www.w3.org/2000/svg">
<rect x="25" width="109" height="83" rx="16" fill="#0F672C"/>
<rect x="0.765076" y="31.2078" width="68.8271" height="44.6894" rx="12" transform="rotate(-16.8773 0.765076 31.2078)" fill="#0F672C"/>
<rect x="34.0006" y="10" width="90" height="63" rx="10" fill="#00E24B"/>
<path d="M67.0005 52.6633V28.3367C67.0005 26.8261 68.611 25.8608 69.9433 26.5729L92.7004 38.7361C94.1101 39.4896 94.1101 41.5104 92.7004 42.2639L69.9433 54.4271C68.611 55.1392 67.0005 54.1739 67.0005 52.6633Z" fill="#05C344"/>
<rect x="49.0005" y="63" width="58" height="5" rx="2.5" fill="#05C344"/>
<rect x="46.4124" y="30.5624" width="5.50988" height="33.0593" rx="2" transform="rotate(50.777 46.4124 30.5624)" fill="#1EF866"/>
<rect x="53.6062" y="43.7321" width="5.50988" height="34.9015" rx="2" transform="rotate(98.3721 53.6062 43.7321)" fill="#1EF866"/>
<circle cx="20.5908" cy="39.1924" r="6.88735" transform="rotate(50.777 20.5908 39.1924)" fill="#1EF866"/>
<circle cx="20.5908" cy="39.1926" r="2.75494" transform="rotate(50.777 20.5908 39.1926)" fill="#05C344"/>
<circle cx="25.3529" cy="54.8644" r="6.88735" transform="rotate(50.777 25.3529 54.8644)" fill="#1EF866"/>
<circle cx="25.353" cy="54.8642" r="2.75494" transform="rotate(50.777 25.353 54.8642)" fill="#05C344"/>
</svg>
