<svg width="16" height="15" viewBox="0 0 16 15" fill="none" xmlns="http://www.w3.org/2000/svg">
<path d="M1 15V5H4V15H1Z" fill="#F7F7F7"/>
<circle cx="2" cy="2" r="2" fill="#F7F7F7"/>
<path d="M6 15V5.15873H8.93808V6.5873C9.81111 5.31746 11.2046 5 12.0441 5C12.9674 5 13.8908 5.11111 14.8982 5.87302C15.9055 6.63492 16.0454 8.46561 15.9895 9.28571V15H12.7996V11.9841C12.7996 11.4286 12.7828 10.0952 12.7156 9.20635C12.6485 8.31746 12.128 7.8836 11.8762 7.77778C10.1973 7.22222 9.35781 8.4127 9.27386 9.28571C9.20671 9.98413 9.18992 11.2698 9.18992 11.8254V15H6Z" fill="#F7F7F7"/>
</svg>
