<svg id="Camada_1" data-name="Camada 1" xmlns="http://www.w3.org/2000/svg" viewBox="0 0 417.36 417.36"><defs><style>.cls-1{fill:#f9f9f9;}.cls-2{fill:#00e24b;}</style></defs><path class="cls-1" d="M165.39,145.7c-35.28,2.13-64,34.07-64,69.41v94h29.31V214.76c0-20.37,15.28-38,35.59-39.73a39,39,0,0,1,42.39,39.28c-.25,22.67-20.06,39.73-42.7,38.45-14.37-.82-20.62-6.17-20.62-6.17v27.15s9,6.18,24.33,6.18c37.72,0,68.31-28.33,68.31-66.05A68.3,68.3,0,0,0,165.39,145.7Z"/><rect class="cls-2" x="265.8" y="107.83" width="23.23" height="75.47"/><rect class="cls-2" x="238.05" y="133.66" width="77.97" height="23.23"/></svg>